PathFileType	4	(X/Y/Z)	E:/Microgravity/Neeraj_13_07_24_t02 _without_weight_pp.trc	
DataRate	CameraRate	NumFrames	NumMarkers	Units	OrigDataRate	OrigDataStartFrame	OrigNumFrames	
120.00	120.00	30	5	m	120.00	1	7058	
Frame#	Time	RHAND			r_radius_styloid			RWRB			r_humerus_epicondyle			r_acromion			
		X1	Y1	Z1	X2	Y2	Z2	X3	Y3	Z3	X4	Y4	Z4	X5	Y5	Z5	

1	0.000	0.10995	0.82075	0.27831	0.06733	0.91486	0.31877	0.02589	0.88030	0.23445	0.00225	1.14383	0.27314	-0.00633	1.52550	0.18431 
2	0.008	0.10990	0.82077	0.27831	0.06729	0.91488	0.31875	0.02589	0.88030	0.23445	0.00221	1.14385	0.27312	-0.00633	1.52554	0.18427 
3	0.017	0.10986	0.82079	0.27831	0.06725	0.91490	0.31874	0.02589	0.88029	0.23445	0.00218	1.14388	0.27310	-0.00634	1.52557	0.18423 
4	0.025	0.10982	0.82081	0.27830	0.06721	0.91493	0.31872	0.02587	0.88029	0.23445	0.00214	1.14390	0.27308	-0.00636	1.52560	0.18419 
5	0.033	0.10978	0.82083	0.27829	0.06716	0.91495	0.31871	0.02583	0.88031	0.23444	0.00210	1.14392	0.27306	-0.00638	1.52562	0.18415 
6	0.042	0.10974	0.82085	0.27829	0.06712	0.91497	0.31870	0.02578	0.88034	0.23443	0.00206	1.14395	0.27304	-0.00640	1.52564	0.18411 
7	0.050	0.10970	0.82086	0.27829	0.06707	0.91499	0.31869	0.02573	0.88036	0.23443	0.00202	1.14397	0.27302	-0.00642	1.52566	0.18408 
8	0.058	0.10964	0.82087	0.27828	0.06702	0.91501	0.31868	0.02568	0.88038	0.23442	0.00198	1.14399	0.27299	-0.00644	1.52567	0.18404 
9	0.067	0.10959	0.82088	0.27828	0.06697	0.91503	0.31867	0.02563	0.88040	0.23441	0.00193	1.14400	0.27297	-0.00646	1.52569	0.18401 
10	0.075	0.10954	0.82089	0.27828	0.06692	0.91505	0.31867	0.02558	0.88042	0.23440	0.00188	1.14402	0.27295	-0.00649	1.52570	0.18398 
11	0.083	0.10948	0.82091	0.27828	0.06687	0.91507	0.31867	0.02552	0.88044	0.23439	0.00183	1.14404	0.27293	-0.00652	1.52572	0.18394 
12	0.092	0.10943	0.82092	0.27829	0.06681	0.91509	0.31866	0.02546	0.88045	0.23437	0.00177	1.14405	0.27290	-0.00656	1.52573	0.18390 
13	0.100	0.10937	0.82093	0.27829	0.06675	0.91511	0.31866	0.02539	0.88047	0.23436	0.00172	1.14407	0.27288	-0.00660	1.52574	0.18386 
14	0.108	0.10931	0.82095	0.27830	0.06669	0.91512	0.31866	0.02531	0.88048	0.23433	0.00166	1.14409	0.27286	-0.00665	1.52575	0.18382 
15	0.117	0.10925	0.82097	0.27830	0.06662	0.91514	0.31866	0.02525	0.88050	0.23432	0.00160	1.14410	0.27284	-0.00669	1.52577	0.18377 
16	0.125	0.10919	0.82099	0.27831	0.06655	0.91516	0.31866	0.02523	0.88050	0.23433	0.00154	1.14412	0.27282	-0.00674	1.52578	0.18373 
17	0.133	0.10913	0.82100	0.27831	0.06648	0.91518	0.31866	0.02522	0.88049	0.23434	0.00148	1.14413	0.27279	-0.00679	1.52579	0.18370 
18	0.142	0.10907	0.82101	0.27832	0.06641	0.91519	0.31867	0.02520	0.88049	0.23435	0.00141	1.14414	0.27277	-0.00684	1.52579	0.18366 
19	0.150	0.10900	0.82102	0.27833	0.06633	0.91521	0.31867	0.02518	0.88048	0.23436	0.00134	1.14415	0.27275	-0.00689	1.52580	0.18362 
20	0.158	0.10894	0.82102	0.27834	0.06626	0.91522	0.31868	0.02515	0.88047	0.23436	0.00128	1.14416	0.27273	-0.00694	1.52580	0.18359 
21	0.167	0.10886	0.82102	0.27835	0.06618	0.91523	0.31869	0.02511	0.88046	0.23435	0.00121	1.14416	0.27271	-0.00700	1.52580	0.18355 
22	0.175	0.10879	0.82102	0.27837	0.06610	0.91524	0.31870	0.02508	0.88043	0.23434	0.00114	1.14417	0.27269	-0.00705	1.52580	0.18352 
23	0.183	0.10871	0.82101	0.27838	0.06602	0.91525	0.31870	0.02505	0.88040	0.23433	0.00107	1.14417	0.27268	-0.00711	1.52580	0.18348 
24	0.192	0.10863	0.82101	0.27839	0.06594	0.91525	0.31871	0.02502	0.88035	0.23431	0.00101	1.14416	0.27266	-0.00717	1.52579	0.18344 
25	0.200	0.10854	0.82099	0.27841	0.06587	0.91525	0.31872	0.02500	0.88028	0.23428	0.00094	1.14416	0.27264	-0.00724	1.52578	0.18341 
26	0.208	0.10846	0.82098	0.27842	0.06578	0.91525	0.31873	0.02499	0.88019	0.23425	0.00088	1.14416	0.27262	-0.00730	1.52577	0.18337 
27	0.217	0.10837	0.82097	0.27843	0.06570	0.91525	0.31874	0.02493	0.88014	0.23422	0.00081	1.14415	0.27261	-0.00736	1.52576	0.18334 
28	0.225	0.10828	0.82096	0.27844	0.06562	0.91525	0.31874	0.02478	0.88019	0.23421	0.00074	1.14415	0.27259	-0.00742	1.52575	0.18331 
29	0.233	0.10820	0.82095	0.27845	0.06554	0.91525	0.31874	0.02461	0.88027	0.23421	0.00067	1.14414	0.27257	-0.00748	1.52574	0.18328 
30	0.242	0.10813	0.82095	0.27846	0.06546	0.91524	0.31874	0.02450	0.88032	0.23423	0.00060	1.14413	0.27254	-0.00754	1.52573	0.18324 
